<?xml version="1.0" encoding="UTF-8"?>
<svg version="1.1" xmlns="http://www.w3.org/2000/svg" width="254" height="288">
<path d="M0 0 C83.82 0 167.64 0 254 0 C254 95.04 254 190.08 254 288 C170.18 288 86.36 288 0 288 C0 192.96 0 97.92 0 0 Z " fill="#FEFEFE" transform="translate(0,0)"/>
<path d="M0 0 C0.66 0 1.32 0 2 0 C2 1.32 2 2.64 2 4 C3.98 4 5.96 4 8 4 C8 5.32 8 6.64 8 8 C9.98 8 11.96 8 14 8 C14 7.34 14 6.68 14 6 C17.3 6 20.6 6 24 6 C24 6.66 24 7.32 24 8 C25.98 8 27.96 8 30 8 C30 8.66 30 9.32 30 10 C30.66 10 31.32 10 32 10 C32 10.66 32 11.32 32 12 C29.36 12 26.72 12 24 12 C24 13.32 24 14.64 24 16 C24.66 16 25.32 16 26 16 C26 15.34 26 14.68 26 14 C27.32 14 28.64 14 30 14 C30 14.66 30 15.32 30 16 C29.34 16 28.68 16 28 16 C28 17.32 28 18.64 28 20 C29.32 20 30.64 20 32 20 C32 18.02 32 16.04 32 14 C32.66 14 33.32 14 34 14 C34 16.64 34 19.28 34 22 C31.36 22 28.72 22 26 22 C26 21.34 26 20.68 26 20 C24.68 20 23.36 20 22 20 C22 26.6 22 33.2 22 40 C21.34 40 20.68 40 20 40 C20 43.3 20 46.6 20 50 C20.66 50 21.32 50 22 50 C22 51.32 22 52.64 22 54 C22.66 54 23.32 54 24 54 C24 55.32 24 56.64 24 58 C24.66 58 25.32 58 26 58 C26 59.32 26 60.64 26 62 C26.66 62 27.32 62 28 62 C28 63.98 28 65.96 28 68 C28.66 68 29.32 68 30 68 C30 69.98 30 71.96 30 74 C30.66 74 31.32 74 32 74 C32 76.64 32 79.28 32 82 C32.66 82 33.32 82 34 82 C34 85.96 34 89.92 34 94 C34.66 94 35.32 94 36 94 C36 98.62 36 103.24 36 108 C34.68 108 33.36 108 32 108 C32 108.66 32 109.32 32 110 C29.36 110 26.72 110 24 110 C24 110.66 24 111.32 24 112 C18.72 112 13.44 112 8 112 C8 119.26 8 126.52 8 134 C8.66 134 9.32 134 10 134 C10 134.66 10 135.32 10 136 C10.66 136 11.32 136 12 136 C12 137.32 12 138.64 12 140 C11.34 140 10.68 140 10 140 C10 152.54 10 165.08 10 178 C15.94 178 21.88 178 28 178 C28 178.66 28 179.32 28 180 C29.98 180 31.96 180 34 180 C34 180.66 34 181.32 34 182 C35.32 182 36.64 182 38 182 C38 183.98 38 185.96 38 188 C37.34 188 36.68 188 36 188 C36 188.66 36 189.32 36 190 C34.02 190 32.04 190 30 190 C30 190.66 30 191.32 30 192 C27.36 192 24.72 192 22 192 C22 192.66 22 193.32 22 194 C10.78 194 -0.44 194 -12 194 C-12 193.34 -12 192.68 -12 192 C-13.98 192 -15.96 192 -18 192 C-18 191.34 -18 190.68 -18 190 C-19.32 190 -20.64 190 -22 190 C-22 189.34 -22 188.68 -22 188 C-22.66 188 -23.32 188 -24 188 C-24 186.68 -24 185.36 -24 184 C-23.34 184 -22.68 184 -22 184 C-22 183.34 -22 182.68 -22 182 C-20.68 182 -19.36 182 -18 182 C-18 181.34 -18 180.68 -18 180 C-16.02 180 -14.04 180 -12 180 C-12 179.34 -12 178.68 -12 178 C-7.38 178 -2.76 178 2 178 C2 165.46 2 152.92 2 140 C1.34 140 0.68 140 0 140 C0 138.68 0 137.36 0 136 C0.66 136 1.32 136 2 136 C2 128.74 2 121.48 2 114 C-1.3 114 -4.6 114 -8 114 C-8 113.34 -8 112.68 -8 112 C-11.96 112 -15.92 112 -20 112 C-20 111.34 -20 110.68 -20 110 C-21.32 110 -22.64 110 -24 110 C-24 109.34 -24 108.68 -24 108 C-24.66 108 -25.32 108 -26 108 C-26 104.7 -26 101.4 -26 98 C-25.34 98 -24.68 98 -24 98 C-24 94.7 -24 91.4 -24 88 C-23.34 88 -22.68 88 -22 88 C-22 86.02 -22 84.04 -22 82 C-21.34 82 -20.68 82 -20 82 C-20 78.7 -20 75.4 -20 72 C-19.34 72 -18.68 72 -18 72 C-18 69.36 -18 66.72 -18 64 C-17.34 64 -16.68 64 -16 64 C-16 62.68 -16 61.36 -16 60 C-15.34 60 -14.68 60 -14 60 C-14 58.68 -14 57.36 -14 56 C-13.34 56 -12.68 56 -12 56 C-12 54.68 -12 53.36 -12 52 C-11.34 52 -10.68 52 -10 52 C-10 48.7 -10 45.4 -10 42 C-10.66 42 -11.32 42 -12 42 C-12 39.36 -12 36.72 -12 34 C-12.66 34 -13.32 34 -14 34 C-14 28.06 -14 22.12 -14 16 C-14.66 16 -15.32 16 -16 16 C-16 15.34 -16 14.68 -16 14 C-17.32 14 -18.64 14 -20 14 C-20 14.66 -20 15.32 -20 16 C-19.34 16 -18.68 16 -18 16 C-18 17.98 -18 19.96 -18 22 C-18.66 22 -19.32 22 -20 22 C-20 22.66 -20 23.32 -20 24 C-21.98 24 -23.96 24 -26 24 C-26 23.34 -26 22.68 -26 22 C-26.66 22 -27.32 22 -28 22 C-28 19.36 -28 16.72 -28 14 C-27.34 14 -26.68 14 -26 14 C-26 13.34 -26 12.68 -26 12 C-25.34 12 -24.68 12 -24 12 C-24 11.34 -24 10.68 -24 10 C-23.34 10 -22.68 10 -22 10 C-22 9.34 -22 8.68 -22 8 C-15.4 8 -8.8 8 -2 8 C-2 6.02 -2 4.04 -2 2 C-1.34 2 -0.68 2 0 2 C0 1.34 0 0.68 0 0 Z " fill="#070707" transform="translate(106,60)"/>
<path d="M0 0 C1.32 0 2.64 0 4 0 C4 0.66 4 1.32 4 2 C4.66 2 5.32 2 6 2 C6 2.66 6 3.32 6 4 C6.66 4 7.32 4 8 4 C8 4.66 8 5.32 8 6 C8.66 6 9.32 6 10 6 C10 6.66 10 7.32 10 8 C10.66 8 11.32 8 12 8 C12 8.66 12 9.32 12 10 C10.68 10 9.36 10 8 10 C8 10.66 8 11.32 8 12 C7.34 12 6.68 12 6 12 C6 12.66 6 13.32 6 14 C5.34 14 4.68 14 4 14 C4 14.66 4 15.32 4 16 C2.68 16 1.36 16 0 16 C0 15.34 0 14.68 0 14 C-0.66 14 -1.32 14 -2 14 C-2 13.34 -2 12.68 -2 12 C-2.66 12 -3.32 12 -4 12 C-4 11.34 -4 10.68 -4 10 C-5.98 10 -7.96 10 -10 10 C-10 9.34 -10 8.68 -10 8 C-9.34 8 -8.68 8 -8 8 C-8 7.34 -8 6.68 -8 6 C-6.68 6 -5.36 6 -4 6 C-4 5.34 -4 4.68 -4 4 C-3.34 4 -2.68 4 -2 4 C-2 3.34 -2 2.68 -2 2 C-1.34 2 -0.68 2 0 2 C0 1.34 0 0.68 0 0 Z " fill="#1B1B1B" transform="translate(166,40)"/>
<path d="M0 0 C2.64 0 5.28 0 8 0 C8 0.66 8 1.32 8 2 C7.34 2 6.68 2 6 2 C6 2.66 6 3.32 6 4 C6.66 4 7.32 4 8 4 C8 5.98 8 7.96 8 10 C7.34 10 6.68 10 6 10 C6 10.66 6 11.32 6 12 C4.02 12 2.04 12 0 12 C0 11.34 0 10.68 0 10 C-0.66 10 -1.32 10 -2 10 C-2 7.36 -2 4.72 -2 2 C-1.34 2 -0.68 2 0 2 C0 1.34 0 0.68 0 0 Z " fill="#5F5F5F" transform="translate(80,72)"/>
<path d="M0 0 C2.64 0 5.28 0 8 0 C8 0.66 8 1.32 8 2 C6.02 2 4.04 2 2 2 C2 8.6 2 15.2 2 22 C1.34 22 0.68 22 0 22 C0 14.74 0 7.48 0 0 Z " fill="#B6B6B6" transform="translate(114,172)"/>
<path d="M0 0 C1.32 0 2.64 0 4 0 C4 0.66 4 1.32 4 2 C3.34 2 2.68 2 2 2 C2 3.32 2 4.64 2 6 C3.32 6 4.64 6 6 6 C6 4.02 6 2.04 6 0 C6.66 0 7.32 0 8 0 C8 2.64 8 5.28 8 8 C5.36 8 2.72 8 0 8 C0 7.34 0 6.68 0 6 C-0.66 6 -1.32 6 -2 6 C-2 4.68 -2 3.36 -2 2 C-1.34 2 -0.68 2 0 2 C0 1.34 0 0.68 0 0 Z " fill="#4B4B4B" transform="translate(132,74)"/>
<path d="M0 0 C2.64 0 5.28 0 8 0 C8 0.66 8 1.32 8 2 C7.34 2 6.68 2 6 2 C6 3.98 6 5.96 6 8 C5.34 8 4.68 8 4 8 C4 6.68 4 5.36 4 4 C3.34 4 2.68 4 2 4 C2 5.32 2 6.64 2 8 C1.34 8 0.68 8 0 8 C0 6.68 0 5.36 0 4 C-0.66 4 -1.32 4 -2 4 C-2 3.34 -2 2.68 -2 2 C-1.34 2 -0.68 2 0 2 C0 1.34 0 0.68 0 0 Z " fill="#969696" transform="translate(80,72)"/>
<path d="M0 0 C1.32 0 2.64 0 4 0 C4 0.66 4 1.32 4 2 C4.66 2 5.32 2 6 2 C6 4.64 6 7.28 6 10 C5.34 10 4.68 10 4 10 C4 10.66 4 11.32 4 12 C3.34 12 2.68 12 2 12 C2 10.68 2 9.36 2 8 C2.66 8 3.32 8 4 8 C4 6.68 4 5.36 4 4 C2.68 4 1.36 4 0 4 C0 4.66 0 5.32 0 6 C-0.66 6 -1.32 6 -2 6 C-2 4.68 -2 3.36 -2 2 C-1.34 2 -0.68 2 0 2 C0 1.34 0 0.68 0 0 Z " fill="#3C3C3C" transform="translate(106,48)"/>
<path d="M0 0 C3.3 0 6.6 0 10 0 C10 0.66 10 1.32 10 2 C9.34 2 8.68 2 8 2 C8 3.98 8 5.96 8 8 C6.68 8 5.36 8 4 8 C4 6.68 4 5.36 4 4 C4.66 4 5.32 4 6 4 C6 3.34 6 2.68 6 2 C4.68 2 3.36 2 2 2 C2 2.66 2 3.32 2 4 C1.34 4 0.68 4 0 4 C0 2.68 0 1.36 0 0 Z " fill="#A1A1A1" transform="translate(130,72)"/>
<path d="M0 0 C0.66 0 1.32 0 2 0 C2 1.32 2 2.64 2 4 C2.66 4 3.32 4 4 4 C4 5.32 4 6.64 4 8 C3.34 8 2.68 8 2 8 C2 8.66 2 9.32 2 10 C1.34 10 0.68 10 0 10 C0 9.34 0 8.68 0 8 C-1.32 8 -2.64 8 -4 8 C-4 6.68 -4 5.36 -4 4 C-2.68 4 -1.36 4 0 4 C0 2.68 0 1.36 0 0 Z " fill="#2D2D2D" transform="translate(194,54)"/>
<path d="M0 0 C0.66 0 1.32 0 2 0 C2 4.62 2 9.24 2 14 C3.32 14 4.64 14 6 14 C6 14.66 6 15.32 6 16 C4.02 16 2.04 16 0 16 C0 10.72 0 5.44 0 0 Z " fill="#969696" transform="translate(116,222)"/>
<path d="M0 0 C2.64 0 5.28 0 8 0 C8 1.32 8 2.64 8 4 C6.68 4 5.36 4 4 4 C4 4.66 4 5.32 4 6 C3.34 6 2.68 6 2 6 C2 5.34 2 4.68 2 4 C1.34 4 0.68 4 0 4 C0 2.68 0 1.36 0 0 Z " fill="#7A7A7A" transform="translate(106,64)"/>
<path d="M0 0 C1.98 0 3.96 0 6 0 C6 1.98 6 3.96 6 6 C5.34 6 4.68 6 4 6 C4 5.34 4 4.68 4 4 C2.02 4 0.04 4 -2 4 C-2 3.34 -2 2.68 -2 2 C-1.34 2 -0.68 2 0 2 C0 1.34 0 0.68 0 0 Z " fill="#313131" transform="translate(84,68)"/>
<path d="M0 0 C0.66 0 1.32 0 2 0 C2 1.32 2 2.64 2 4 C1.34 4 0.68 4 0 4 C0 5.32 0 6.64 0 8 C0.66 8 1.32 8 2 8 C2 8.66 2 9.32 2 10 C0.02 10 -1.96 10 -4 10 C-4 9.34 -4 8.68 -4 8 C-3.34 8 -2.68 8 -2 8 C-2 6.02 -2 4.04 -2 2 C-1.34 2 -0.68 2 0 2 C0 1.34 0 0.68 0 0 Z " fill="#3F3F3F" transform="translate(106,60)"/>
<path d="M0 0 C1.32 0 2.64 0 4 0 C4 2.64 4 5.28 4 8 C2.68 8 1.36 8 0 8 C0 5.36 0 2.72 0 0 Z " fill="#A7A7A7" transform="translate(166,56)"/>
<path d="M0 0 C0.66 0 1.32 0 2 0 C2 2.64 2 5.28 2 8 C0.02 8 -1.96 8 -4 8 C-4 7.34 -4 6.68 -4 6 C-2.68 6 -1.36 6 0 6 C0 4.02 0 2.04 0 0 Z " fill="#252525" transform="translate(138,74)"/>
<path d="M0 0 C1.32 0 2.64 0 4 0 C4 1.32 4 2.64 4 4 C2.68 4 1.36 4 0 4 C0 4.66 0 5.32 0 6 C-0.66 6 -1.32 6 -2 6 C-2 4.68 -2 3.36 -2 2 C-1.34 2 -0.68 2 0 2 C0 1.34 0 0.68 0 0 Z " fill="#666666" transform="translate(106,48)"/>
<path d="M0 0 C1.32 0 2.64 0 4 0 C4 1.98 4 3.96 4 6 C2.68 6 1.36 6 0 6 C0 4.02 0 2.04 0 0 Z " fill="#A3A3A3" transform="translate(166,34)"/>
<path d="M0 0 C0.66 0 1.32 0 2 0 C2 2.64 2 5.28 2 8 C0.68 8 -0.64 8 -2 8 C-2 7.34 -2 6.68 -2 6 C-1.34 6 -0.68 6 0 6 C0 4.02 0 2.04 0 0 Z " fill="#E8E8E8" transform="translate(168,26)"/>
</svg>
